<?xml version="1.0" standalone="no"?><svg xmlns="http://www.w3.org/2000/svg" viewBox="0 0 1440 320"><path fill="#8811FE" fill-opacity="1" d="M0,160L14.1,138.7C28.2,117,56,75,85,96C112.9,117,141,203,169,245.3C197.6,288,226,288,254,250.7C282.4,213,311,139,339,128C367.1,117,395,171,424,181.3C451.8,192,480,160,508,160C536.5,160,565,192,593,186.7C621.2,181,649,139,678,133.3C705.9,128,734,160,762,186.7C790.6,213,819,235,847,245.3C875.3,256,904,256,932,250.7C960,245,988,235,1016,234.7C1044.7,235,1073,245,1101,261.3C1129.4,277,1158,299,1186,293.3C1214.1,288,1242,256,1271,208C1298.8,160,1327,96,1355,106.7C1383.5,117,1412,203,1426,245.3L1440,288L1440,0L1425.9,0C1411.8,0,1384,0,1355,0C1327.1,0,1299,0,1271,0C1242.4,0,1214,0,1186,0C1157.6,0,1129,0,1101,0C1072.9,0,1045,0,1016,0C988.2,0,960,0,932,0C903.5,0,875,0,847,0C818.8,0,791,0,762,0C734.1,0,706,0,678,0C649.4,0,621,0,593,0C564.7,0,536,0,508,0C480,0,452,0,424,0C395.3,0,367,0,339,0C310.6,0,282,0,254,0C225.9,0,198,0,169,0C141.2,0,113,0,85,0C56.5,0,28,0,14,0L0,0Z"></path></svg>