<?xml version="1.0" standalone="no"?>
<svg
  width="600"
  height="600"
  viewBox="0 0 600 600"
  xmlns="http://www.w3.org/2000/svg"
>
  <g transform="translate(300,300)">
    <path d="M67.7,-133.2C87.1,-92.9,101.8,-73,135.7,-47.6C169.7,-22.2,222.9,8.7,239.2,48.5C255.4,88.2,234.6,136.8,194.2,149.4C153.9,161.9,93.8,138.5,46.2,148.4C-1.4,158.3,-36.6,201.5,-79.3,214.4C-122,227.3,-172.1,209.9,-188.6,173.2C-205.2,136.6,-188.2,80.6,-185.5,32.9C-182.7,-14.9,-194.1,-54.4,-181.4,-83.2C-168.8,-111.9,-132,-130,-97.7,-163.5C-63.4,-197,-31.7,-246,-3.8,-240.1C24.1,-234.2,48.3,-173.5,67.7,-133.2Z" fill="#8811fe" />
  </g>
</svg>
  